<svg version="1" xmlns="http://www.w3.org/2000/svg" width="933.333" height="933.333" viewBox="0 0 700.000000 700.000000"><path d="M152.5 97l-4.9.5-.1 22c0 12.1.1 22.8.3 23.7.4 1.5 3 1.7 29.5 1.7h36.4l7.2.1-.4 2.8c-.2 1.6-.6 6.2-1 10.3-.5 7-.8 10.1-2 21.6-.3 2.7-.7 7.9-1 11.8-.3 3.8-.7 8.8-.9 11-.3 2.2-.7 7.1-1 11-.8 9.4-1.6 18.2-2.1 22.5-.7 5.7-2 21.3-3 36-.4 4.7-.8 9.1-1 9.7-.4 1-22.1 1.3-104.5 1.3H0v48h204.2l-.7 7.2c-.3 4-.8 9.1-1 11.3-.2 2.2-.7 6.7-1 10-.4 3.3-.8 6.2-1 6.4-.2.2-21.6.3-47.4.3H106v4.7c0 2.5-.1 13.3-.3 23.9l-.2 19.2 3 .1h45.6l42.6-.2-.3 2.8c-.2 1.6-.6 6.5-.9 11-.6 8.2-.6 8.3 1.7 8.4 8.8.3 405.9.1 406.1-.2.2-.2 1.9-5.1 3.9-10.9 5.2-15.2 20.8-59.2 21.9-61.5.4-1.1 5.2-14.2 10.4-29 5.3-14.9 14.1-39.4 19.5-54.5 9.6-26.9 25.4-71 35-98 2.6-7.4 5.1-14.2 5.4-15.1.6-1.4-19.9-1.5-215.8-1.5l-216.5.1.4-6c.3-3.3.7-8.4 1-11.3 1.2-12.4 1.5-16 2-21.6.3-3.3.8-9.1 1.1-13 .4-3.9.7-9.3.8-12l.1-4.9-57.5-.1c-31.6 0-59.7.1-62.5.4zm478.8 117.5c-.1.5-3.4 10-7.3 21-4 11-8.5 23.6-10 28-1.6 4.4-4.7 13.2-7 19.5-2.3 6.3-5.7 15.8-7.5 21-1.8 5.2-5.1 14.4-7.3 20.5-2.2 6-8.1 22.7-13.2 37-5.2 14.3-9.5 26.2-9.7 26.4-.2.3-316.4.5-321 .2-.8-.1-1.1-1.5-.8-4.4.6-5.9 1.2-13.2 2.5-28.2.6-7.2 1.3-14.4 1.5-16 .2-1.7.4-4.2.4-5.8l.1-2.7h19.5c14.9 0 19.5-.3 19.6-1.3.1-.6.2-11.3.3-23.7l.1-22.5-17.5-.5c-10.8-.3-17.4-.9-17.3-1.5 0-.6.4-4.4.7-8.5.4-4.1 1.1-12.2 1.6-18 .5-5.8 1.2-13 1.4-16 1.1-12.5 2.2-23.9 2.5-25 .2-1 368.6-.5 368.4.5z"/><path d="M59.6 203c-1 .4-1.3 5.4-1.2 24l.1 23.5h64.3l64.2.1v-23.8c0-13.1-.3-23.8-.7-23.9-3.5-.4-125.7-.3-126.7.1zM247 455.2c-9.2.9-15.2 2.4-23.2 5.8-27.2 11.6-47.4 36.7-51.8 64.5-5.7 36 15.2 67.8 50 75.9 9.2 2.2 27.1 1.5 37-1.4 30.1-8.7 54.1-34.4 60.4-64.6 1.5-6.9 1.5-23.9.1-29.9l-.6-3h68c37.5 0 68.1.3 68.1.6s-1.1 3.2-2.4 6.5c-7.6 18.7-7.1 40.5 1.4 57.6 8.5 17 23.4 28.8 43 33.9 20.1 5.2 45.7-.3 64.4-13.8 15.3-11.1 27.4-28.3 32.7-46.3 3.1-10.7 3.4-27.6.8-37.3-3.2-11.7-8.5-21.2-15.8-28.7-7.3-7.4-11.9-10.6-20.3-14.4-13.6-6.2-5.5-5.9-162.3-6-78.6-.1-145.9.2-149.5.6zm13.1 48.2c8.2 1.4 13.5 9.3 12.6 18.7-1.2 13-10.8 25.4-23.5 30.4-6 2.4-8.1 2.7-13.6 2.3-11.5-1-17.3-7.8-16.3-19.2.9-11 7.2-20.7 17.4-27.3 5.1-3.2 15.2-6.5 18.3-5.8.8.2 3.1.6 5.1.9zm278.6.7c4.2 1.3 9 6.9 9.9 11.5.8 4.5-.1 12.6-1.8 15.6-.7 1.3-1.2 2.6-1.3 3 0 .4-1.7 3-3.8 5.8-4.4 5.8-13.4 12.1-20.1 14-6.8 1.9-15.8.8-20-2.4-12.1-9.2-6.2-32.1 11.1-43.2 8.9-5.7 17.1-7 26-4.3z"/></svg>